<svg width="21" height="19" viewBox="0 0 21 19" fill="none" xmlns="http://www.w3.org/2000/svg">
<path d="M20.7931 1.99031C20.2066 1.3622 19.4973 0.86139 18.7091 0.518981C17.921 0.176571 17.0708 -0.00012207 16.2115 -0.00012207C15.3522 -0.00012207 14.502 0.176571 13.7139 0.518981C12.9257 0.86139 12.2164 1.3622 11.6299 1.99031C11.1783 2.46415 10.7978 3.00098 10.5002 3.58406C10.2042 3.00128 9.82522 2.46446 9.37524 1.99031C8.7888 1.3622 8.07946 0.86139 7.29131 0.518981C6.50315 0.176571 5.653 -0.00012207 4.79368 -0.00012207C3.93436 -0.00012207 3.08421 0.176571 2.29606 0.518981C1.5079 0.86139 0.798565 1.3622 0.212118 1.99031C0.128954 2.07768 0.0680904 2.18383 0.0346921 2.29973C0.00129369 2.41564 -0.00365444 2.5379 0.0202675 2.65613C0.0441894 2.77436 0.0962756 2.88507 0.172107 2.97888C0.247939 3.07269 0.345278 3.14683 0.455868 3.195L5.71899 5.48906C4.00501 5.94732 2.54298 7.06711 1.65399 8.6025C1.20798 9.36359 0.918516 10.2061 0.802602 11.0806C0.686688 11.9551 0.746659 12.844 0.978993 13.695C1.01111 13.8136 1.07186 13.9225 1.1559 14.0121C1.23995 14.1017 1.34472 14.1692 1.461 14.2089C1.57729 14.2485 1.70152 14.2589 1.82279 14.2393C1.94407 14.2197 2.05866 14.1705 2.15649 14.0962L9.75024 8.31375V18C9.75024 18.1989 9.82926 18.3897 9.96991 18.5303C10.1106 18.671 10.3013 18.75 10.5002 18.75C10.6992 18.75 10.8899 18.671 11.0306 18.5303C11.1712 18.3897 11.2502 18.1989 11.2502 18V8.31375L18.844 14.0962C18.9418 14.1708 19.0565 14.2201 19.1779 14.2398C19.2993 14.2596 19.4237 14.2492 19.5401 14.2095C19.6565 14.1699 19.7614 14.1022 19.8455 14.0125C19.9296 13.9228 19.9904 13.8137 20.0224 13.695C20.2548 12.844 20.3147 11.9551 20.1988 11.0806C20.0829 10.2061 19.7934 9.36359 19.3474 8.6025C18.4582 7.06691 16.9958 5.9471 15.2815 5.48906L20.5521 3.195C20.6627 3.14683 20.76 3.07269 20.8359 2.97888C20.9117 2.88507 20.9638 2.77436 20.9877 2.65613C21.0116 2.5379 21.0067 2.41564 20.9733 2.29973C20.9399 2.18383 20.879 2.07768 20.7959 1.99031H20.7931ZM4.78899 1.5C5.44485 1.50147 6.09342 1.63751 6.69459 1.89972C7.29575 2.16192 7.83671 2.5447 8.28399 3.02437C8.95232 3.7277 9.41474 4.60099 9.62087 5.54906L2.15649 2.29968C2.93548 1.77841 3.85168 1.50009 4.78899 1.5ZM2.25024 12.1406C2.21443 11.1648 2.45735 10.199 2.95056 9.35625C3.29531 8.76127 3.75447 8.24046 4.30156 7.82387C4.84865 7.40728 5.47282 7.10316 6.13806 6.92906C6.58546 6.8097 7.04657 6.7495 7.50962 6.75C8.02517 6.74995 8.53789 6.82608 9.03118 6.97593L2.25024 12.1406ZM18.0471 9.35625C18.5413 10.1987 18.7852 11.1645 18.7502 12.1406L11.9721 6.975C13.1055 6.63277 14.321 6.68151 15.4233 7.11339C16.5256 7.54527 17.4507 8.33521 18.0499 9.35625H18.0471ZM11.3796 5.54906C11.5857 4.60099 12.0482 3.7277 12.7165 3.02437C13.1638 2.5447 13.7047 2.16192 14.3059 1.89972C14.9071 1.63751 15.5556 1.50147 16.2115 1.5C17.1488 1.50009 18.065 1.77841 18.844 2.29968L11.3796 5.54906Z" fill="#757575"/>
</svg>
