<svg width="22" height="16" viewBox="0 0 22 16" fill="none" xmlns="http://www.w3.org/2000/svg">
<path d="M7.75 6.5C7.75 6.30109 7.82902 6.11032 7.96967 5.96967C8.11032 5.82902 8.30109 5.75 8.5 5.75H16C16.1989 5.75 16.3897 5.82902 16.5303 5.96967C16.671 6.11032 16.75 6.30109 16.75 6.5C16.75 6.69891 16.671 6.88968 16.5303 7.03033C16.3897 7.17098 16.1989 7.25 16 7.25H8.5C8.30109 7.25 8.11032 7.17098 7.96967 7.03033C7.82902 6.88968 7.75 6.69891 7.75 6.5ZM8.5 10.25H16C16.1989 10.25 16.3897 10.171 16.5303 10.0303C16.671 9.88968 16.75 9.69891 16.75 9.5C16.75 9.30109 16.671 9.11032 16.5303 8.96967C16.3897 8.82902 16.1989 8.75 16 8.75H8.5C8.30109 8.75 8.11032 8.82902 7.96967 8.96967C7.82902 9.11032 7.75 9.30109 7.75 9.5C7.75 9.69891 7.82902 9.88968 7.96967 10.0303C8.11032 10.171 8.30109 10.25 8.5 10.25ZM21.25 2V13.25C21.25 13.8467 21.0129 14.419 20.591 14.841C20.169 15.2629 19.5967 15.5 19 15.5H2.5C1.90505 15.5 1.33431 15.2644 0.912645 14.8446C0.490983 14.4249 0.252727 13.8553 0.25 13.2603V4.25C0.25 4.05109 0.329018 3.86032 0.46967 3.71967C0.610322 3.57902 0.801088 3.5 1 3.5C1.19891 3.5 1.38968 3.57902 1.53033 3.71967C1.67098 3.86032 1.75 4.05109 1.75 4.25V13.25C1.75 13.4489 1.82902 13.6397 1.96967 13.7803C2.11032 13.921 2.30109 14 2.5 14C2.69891 14 2.88968 13.921 3.03033 13.7803C3.17098 13.6397 3.25 13.4489 3.25 13.25V2C3.25 1.60218 3.40804 1.22064 3.68934 0.93934C3.97064 0.658035 4.35218 0.5 4.75 0.5H19.75C20.1478 0.5 20.5294 0.658035 20.8107 0.93934C21.092 1.22064 21.25 1.60218 21.25 2ZM19.75 2H4.75V13.25C4.75037 13.5055 4.70693 13.7592 4.62156 14H19C19.1989 14 19.3897 13.921 19.5303 13.7803C19.671 13.6397 19.75 13.4489 19.75 13.25V2Z" fill="#757575"/>
</svg>
