<svg width="19" height="19" viewBox="0 0 19 19" fill="none" xmlns="http://www.w3.org/2000/svg">
<path d="M18.0603 8.18875L10.5603 0.688748C10.279 0.407656 9.89766 0.249756 9.50001 0.249756C9.10236 0.249756 8.72097 0.407656 8.4397 0.688748L0.939697 8.18875C0.799732 8.32767 0.688783 8.49304 0.6133 8.67523C0.537817 8.85742 0.499308 9.05279 0.500009 9.25V18.25C0.500009 18.4489 0.579027 18.6397 0.719679 18.7803C0.860332 18.921 1.0511 19 1.25001 19H7.25001C7.44892 19 7.63969 18.921 7.78034 18.7803C7.92099 18.6397 8.00001 18.4489 8.00001 18.25V13H11V18.25C11 18.4489 11.079 18.6397 11.2197 18.7803C11.3603 18.921 11.5511 19 11.75 19H17.75C17.9489 19 18.1397 18.921 18.2803 18.7803C18.421 18.6397 18.5 18.4489 18.5 18.25V9.25C18.5007 9.05279 18.4622 8.85742 18.3867 8.67523C18.3112 8.49304 18.2003 8.32767 18.0603 8.18875ZM17 17.5H12.5V12.25C12.5 12.0511 12.421 11.8603 12.2803 11.7197C12.1397 11.579 11.9489 11.5 11.75 11.5H7.25001C7.0511 11.5 6.86033 11.579 6.71968 11.7197C6.57903 11.8603 6.50001 12.0511 6.50001 12.25V17.5H2.00001V9.25L9.50001 1.75L17 9.25V17.5Z" fill="#757575"/>
</svg>
