<svg width="19" height="20" viewBox="0 0 19 20" fill="none" xmlns="http://www.w3.org/2000/svg">
<path d="M17 2H14.75V1.25C14.75 1.05109 14.671 0.860322 14.5303 0.71967C14.3897 0.579018 14.1989 0.5 14 0.5C13.8011 0.5 13.6103 0.579018 13.4697 0.71967C13.329 0.860322 13.25 1.05109 13.25 1.25V2H5.75V1.25C5.75 1.05109 5.67098 0.860322 5.53033 0.71967C5.38968 0.579018 5.19891 0.5 5 0.5C4.80109 0.5 4.61032 0.579018 4.46967 0.71967C4.32902 0.860322 4.25 1.05109 4.25 1.25V2H2C1.60218 2 1.22064 2.15804 0.93934 2.43934C0.658035 2.72064 0.5 3.10218 0.5 3.5V18.5C0.5 18.8978 0.658035 19.2794 0.93934 19.5607C1.22064 19.842 1.60218 20 2 20H17C17.3978 20 17.7794 19.842 18.0607 19.5607C18.342 19.2794 18.5 18.8978 18.5 18.5V3.5C18.5 3.10218 18.342 2.72064 18.0607 2.43934C17.7794 2.15804 17.3978 2 17 2ZM4.25 3.5V4.25C4.25 4.44891 4.32902 4.63968 4.46967 4.78033C4.61032 4.92098 4.80109 5 5 5C5.19891 5 5.38968 4.92098 5.53033 4.78033C5.67098 4.63968 5.75 4.44891 5.75 4.25V3.5H13.25V4.25C13.25 4.44891 13.329 4.63968 13.4697 4.78033C13.6103 4.92098 13.8011 5 14 5C14.1989 5 14.3897 4.92098 14.5303 4.78033C14.671 4.63968 14.75 4.44891 14.75 4.25V3.5H17V6.5H2V3.5H4.25ZM17 18.5H2V8H17V18.5ZM13.4056 10.4694C13.4754 10.539 13.5307 10.6217 13.5684 10.7128C13.6062 10.8038 13.6256 10.9014 13.6256 11C13.6256 11.0986 13.6062 11.1962 13.5684 11.2872C13.5307 11.3783 13.4754 11.461 13.4056 11.5306L8.90563 16.0306C8.83597 16.1004 8.75325 16.1557 8.6622 16.1934C8.57116 16.2312 8.47356 16.2506 8.375 16.2506C8.27644 16.2506 8.17884 16.2312 8.08779 16.1934C7.99675 16.1557 7.91403 16.1004 7.84437 16.0306L5.59437 13.7806C5.45364 13.6399 5.37458 13.449 5.37458 13.25C5.37458 13.051 5.45364 12.8601 5.59437 12.7194C5.73511 12.5786 5.92598 12.4996 6.125 12.4996C6.32402 12.4996 6.51489 12.5786 6.65563 12.7194L8.375 14.4397L12.3444 10.4694C12.414 10.3996 12.4967 10.3443 12.5878 10.3066C12.6788 10.2688 12.7764 10.2494 12.875 10.2494C12.9736 10.2494 13.0712 10.2688 13.1622 10.3066C13.2533 10.3443 13.336 10.3996 13.4056 10.4694Z" fill="#757575"/>
</svg>
