<svg width="19" height="14" viewBox="0 0 19 14" fill="none" xmlns="http://www.w3.org/2000/svg">
<path d="M18.5402 6.75C18.5402 6.94891 18.4611 7.13968 18.3205 7.28033C18.1798 7.42098 17.9891 7.5 17.7902 7.5H1.29016C1.09125 7.5 0.900483 7.42098 0.759831 7.28033C0.619179 7.13968 0.540161 6.94891 0.540161 6.75C0.540161 6.55109 0.619179 6.36032 0.759831 6.21967C0.900483 6.07902 1.09125 6 1.29016 6H17.7902C17.9891 6 18.1798 6.07902 18.3205 6.21967C18.4611 6.36032 18.5402 6.55109 18.5402 6.75ZM1.29016 1.5H17.7902C17.9891 1.5 18.1798 1.42098 18.3205 1.28033C18.4611 1.13968 18.5402 0.948912 18.5402 0.75C18.5402 0.551088 18.4611 0.360322 18.3205 0.21967C18.1798 0.0790178 17.9891 0 17.7902 0H1.29016C1.09125 0 0.900483 0.0790178 0.759831 0.21967C0.619179 0.360322 0.540161 0.551088 0.540161 0.75C0.540161 0.948912 0.619179 1.13968 0.759831 1.28033C0.900483 1.42098 1.09125 1.5 1.29016 1.5ZM17.7902 12H1.29016C1.09125 12 0.900483 12.079 0.759831 12.2197C0.619179 12.3603 0.540161 12.5511 0.540161 12.75C0.540161 12.9489 0.619179 13.1397 0.759831 13.2803C0.900483 13.421 1.09125 13.5 1.29016 13.5H17.7902C17.9891 13.5 18.1798 13.421 18.3205 13.2803C18.4611 13.1397 18.5402 12.9489 18.5402 12.75C18.5402 12.5511 18.4611 12.3603 18.3205 12.2197C18.1798 12.079 17.9891 12 17.7902 12Z" fill="white"/>
</svg>
