<svg width="21" height="19" viewBox="0 0 21 19" fill="none" xmlns="http://www.w3.org/2000/svg">
<path d="M20.985 2.65606C20.9611 2.77435 20.909 2.88513 20.8331 2.97898C20.7572 3.07283 20.6598 3.14697 20.5491 3.19512L15.2813 5.48918C16.9953 5.94744 18.4573 7.06723 19.3463 8.60262C19.7923 9.36371 20.0818 10.2062 20.1977 11.0808C20.3136 11.9553 20.2536 12.8441 20.0213 13.6951C19.9892 13.8137 19.9284 13.9226 19.8444 14.0122C19.7603 14.1018 19.6556 14.1694 19.5393 14.209C19.423 14.2486 19.2988 14.2591 19.1775 14.2394C19.0562 14.2198 18.9416 14.1707 18.8438 14.0964L11.25 8.31387V18.0001C11.25 18.199 11.171 18.3898 11.0304 18.5304C10.8897 18.6711 10.699 18.7501 10.5 18.7501C10.3011 18.7501 10.1104 18.6711 9.96972 18.5304C9.82907 18.3898 9.75005 18.199 9.75005 18.0001V8.31387L2.1563 14.0964C2.05845 14.1709 1.94378 14.2202 1.82239 14.2399C1.70101 14.2597 1.57662 14.2493 1.4602 14.2096C1.34378 14.17 1.2389 14.1023 1.15478 14.0126C1.07067 13.9229 1.00991 13.8139 0.97786 13.6951C0.745526 12.8441 0.685555 11.9553 0.801469 11.0808C0.917383 10.2062 1.20685 9.36371 1.65286 8.60262C2.54207 7.06703 4.00447 5.94722 5.7188 5.48918L0.450985 3.19512C0.340395 3.14695 0.243056 3.07281 0.167224 2.979C0.0913926 2.8852 0.0393067 2.77448 0.0153847 2.65625C-0.00853719 2.53802 -0.00358923 2.41577 0.0298091 2.29986C0.0632075 2.18395 0.124071 2.0778 0.207235 1.99043C0.793682 1.36232 1.50302 0.861512 2.29117 0.519103C3.07933 0.176693 3.92948 0 4.7888 0C5.64812 0 6.49827 0.176693 7.28642 0.519103C8.07458 0.861512 8.78391 1.36232 9.37036 1.99043C9.82034 2.46458 10.1993 3.0014 10.4954 3.58418C10.7929 3.00111 11.1734 2.46427 11.625 1.99043C12.2115 1.36232 12.9208 0.861512 13.709 0.519103C14.4971 0.176693 15.3473 0 16.2066 0C17.0659 0 17.9161 0.176693 18.7042 0.519103C19.4924 0.861512 20.2017 1.36232 20.7882 1.99043C20.8722 2.07731 20.934 2.1832 20.9682 2.2991C21.0025 2.41499 21.0083 2.53745 20.985 2.65606Z" fill="black"/>
</svg>
