<svg width="18" height="18" viewBox="0 0 18 18" fill="none" xmlns="http://www.w3.org/2000/svg">
<path d="M16.5 0H1.5C1.1023 0.000392648 0.720993 0.158554 0.439774 0.439774C0.158554 0.720993 0.000392648 1.1023 0 1.5V16.5C0.000392896 16.8977 0.158554 17.279 0.439774 17.5602C0.720993 17.8414 1.1023 17.9996 1.5 18H16.5C16.8977 17.9996 17.279 17.8414 17.5602 17.5602C17.8414 17.279 17.9996 16.8977 18 16.5V1.5C17.9996 1.1023 17.8414 0.720993 17.5602 0.439773C17.279 0.158554 16.8977 0.0003924 16.5 0ZM13.6428 7.29199L8.14233 12.542C8.00299 12.6755 7.81748 12.75 7.62451 12.75C7.43155 12.75 7.24603 12.6755 7.10669 12.542L4.35718 9.91699C4.28581 9.84904 4.22853 9.76768 4.18864 9.67757C4.14874 9.58746 4.127 9.49036 4.12467 9.39184C4.12234 9.29332 4.13946 9.19531 4.17504 9.10341C4.21063 9.01151 4.26399 8.92753 4.33207 8.85628C4.40014 8.78502 4.4816 8.72789 4.57178 8.68815C4.66196 8.64841 4.75909 8.62685 4.85762 8.62468C4.95614 8.62252 5.05413 8.63981 5.14596 8.67556C5.2378 8.7113 5.32169 8.76481 5.39282 8.83301L7.62451 10.9629L12.6072 6.20801C12.6783 6.13981 12.7622 6.0863 12.854 6.05056C12.9459 6.01481 13.0439 5.99752 13.1424 5.99968C13.2409 6.00185 13.338 6.02341 13.4282 6.06315C13.5184 6.10289 13.5999 6.16002 13.6679 6.23128C13.736 6.30253 13.7894 6.38651 13.825 6.47841C13.8605 6.57031 13.8777 6.66832 13.8753 6.76684C13.873 6.86536 13.8513 6.96246 13.8114 7.05257C13.7715 7.14268 13.7142 7.22404 13.6428 7.29199H13.6428Z" fill="#231D17"/>
</svg>
