<svg width="18" height="18" viewBox="0 0 18 18" fill="none" xmlns="http://www.w3.org/2000/svg">
<path d="M17.8475 7.01496C17.7693 6.77474 17.6219 6.56302 17.4236 6.40648C17.2254 6.24994 16.9852 6.15557 16.7334 6.13527L12.1241 5.76339L10.3444 1.45949C10.2481 1.22497 10.0843 1.02437 9.87376 0.883188C9.66321 0.742008 9.41544 0.666626 9.16194 0.666626C8.90844 0.666626 8.66067 0.742008 8.45012 0.883188C8.23958 1.02437 8.07577 1.22497 7.97952 1.45949L6.2014 5.76261L1.58968 6.13527C1.33747 6.1566 1.09717 6.25188 0.898875 6.40918C0.700582 6.56648 0.553118 6.77879 0.474958 7.01953C0.396798 7.26026 0.391419 7.51871 0.459494 7.76249C0.527568 8.00627 0.66607 8.22454 0.857645 8.38996L4.37327 11.4235L3.30218 15.9595C3.24227 16.2059 3.25694 16.4646 3.34432 16.7027C3.43169 16.9407 3.58784 17.1475 3.79293 17.2967C3.99802 17.4458 4.24281 17.5307 4.49622 17.5405C4.74963 17.5503 5.00024 17.4846 5.21624 17.3517L9.16155 14.9235L13.1092 17.3517C13.3253 17.483 13.5754 17.5474 13.828 17.5369C14.0806 17.5264 14.3245 17.4413 14.5289 17.2925C14.7333 17.1436 14.8891 16.9377 14.9766 16.7004C15.0642 16.4632 15.0796 16.2054 15.0209 15.9595L13.9459 11.4228L17.4616 8.38917C17.6547 8.22404 17.7944 8.00529 17.8632 7.76066C17.9319 7.51602 17.9264 7.25649 17.8475 7.01496ZM16.6491 7.4423L12.8444 10.7235C12.7576 10.7983 12.6931 10.8955 12.6578 11.0045C12.6225 11.1135 12.6179 11.2301 12.6444 11.3415L13.8069 16.2478C13.8099 16.2545 13.8102 16.2622 13.8077 16.2692C13.8052 16.2761 13.8002 16.2819 13.7936 16.2853C13.7795 16.2962 13.7756 16.2939 13.7639 16.2853L9.4889 13.6564C9.39044 13.5958 9.27713 13.5638 9.16155 13.5638C9.04598 13.5638 8.93266 13.5958 8.83421 13.6564L4.55921 16.2868C4.54749 16.2939 4.54436 16.2962 4.52952 16.2868C4.52293 16.2835 4.51787 16.2777 4.5154 16.2707C4.51293 16.2638 4.51323 16.2561 4.51624 16.2493L5.67874 11.3431C5.70523 11.2316 5.70059 11.1151 5.66532 11.0061C5.63005 10.8971 5.5655 10.7999 5.47874 10.7251L1.67405 7.44386C1.66468 7.43605 1.65608 7.42902 1.6639 7.4048C1.67171 7.38058 1.67796 7.38371 1.68968 7.38214L6.68343 6.97902C6.79797 6.96919 6.90758 6.92797 7.0002 6.85988C7.09282 6.79179 7.16488 6.69947 7.20843 6.59308L9.13186 1.93605C9.13811 1.92277 9.14046 1.91652 9.15921 1.91652C9.17796 1.91652 9.1803 1.92277 9.18655 1.93605L11.1147 6.59308C11.1586 6.69951 11.2311 6.79173 11.3242 6.85956C11.4173 6.92738 11.5272 6.96818 11.642 6.97746L16.6358 7.38058C16.6475 7.38058 16.6545 7.38058 16.6616 7.40324C16.6686 7.42589 16.6616 7.43449 16.6491 7.4423Z" fill="#C7C7C7"/>
</svg>
