<svg width="22" height="18" viewBox="0 0 22 18" fill="none" xmlns="http://www.w3.org/2000/svg">
<path d="M21.2806 7.97033L13.7806 0.470332C13.6758 0.36538 13.5422 0.293873 13.3967 0.264856C13.2512 0.235838 13.1004 0.250613 12.9633 0.307311C12.8263 0.364009 12.7091 0.460084 12.6266 0.583385C12.5441 0.706687 12.5001 0.851677 12.5 1.00002V4.78283C10.0681 4.99096 7.38219 6.18158 5.1725 8.05564C2.51188 10.3131 0.855317 13.2222 0.507504 16.2466C0.480324 16.4817 0.527999 16.7194 0.643745 16.9259C0.759491 17.1324 0.93741 17.2971 1.15218 17.3966C1.36695 17.496 1.60764 17.5253 1.83997 17.48C2.07231 17.4348 2.28447 17.3175 2.44625 17.1447C3.4775 16.0469 7.14688 12.5753 12.5 12.2697V16C12.5001 16.1484 12.5441 16.2934 12.6266 16.4167C12.7091 16.54 12.8263 16.636 12.9633 16.6927C13.1004 16.7494 13.2512 16.7642 13.3967 16.7352C13.5422 16.7062 13.6758 16.6347 13.7806 16.5297L21.2806 9.02971C21.4209 8.88911 21.4997 8.69862 21.4997 8.50002C21.4997 8.30142 21.4209 8.11093 21.2806 7.97033ZM14 14.1897V11.5C14 11.3011 13.921 11.1103 13.7803 10.9697C13.6397 10.829 13.4489 10.75 13.25 10.75C10.6175 10.75 8.05344 11.4372 5.62907 12.7938C4.39433 13.4877 3.24389 14.322 2.20063 15.28C2.74438 13.045 4.115 10.9197 6.14282 9.19939C8.31969 7.35346 10.9766 6.25002 13.25 6.25002C13.4489 6.25002 13.6397 6.171 13.7803 6.03035C13.921 5.8897 14 5.69893 14 5.50002V2.81127L19.6897 8.50002L14 14.1897Z" fill="#C7C7C7"/>
</svg>
