<svg width="20" height="18" viewBox="0 0 20 18" fill="none" xmlns="http://www.w3.org/2000/svg">
<path d="M19.5 2.25001V6.75001C19.5 6.94892 19.421 7.13969 19.2803 7.28034C19.1397 7.42099 18.9489 7.50001 18.75 7.50001H14.25C14.0511 7.50001 13.8603 7.42099 13.7197 7.28034C13.579 7.13969 13.5 6.94892 13.5 6.75001C13.5 6.5511 13.579 6.36033 13.7197 6.21968C13.8603 6.07903 14.0511 6.00001 14.25 6.00001H16.8188L14.3259 3.71626L14.3025 3.69376C13.2601 2.65172 11.9337 1.93994 10.4891 1.64734C9.04448 1.35473 7.54567 1.49428 6.17991 2.04854C4.81414 2.60281 3.64197 3.54721 2.80982 4.76379C1.97768 5.98036 1.52245 7.41517 1.501 8.88896C1.47956 10.3627 1.89286 11.8102 2.68926 13.0505C3.48566 14.2907 4.62986 15.2688 5.97892 15.8626C7.32798 16.4564 8.82209 16.6395 10.2746 16.389C11.7271 16.1386 13.0736 15.4657 14.1459 14.4544C14.2905 14.3176 14.4835 14.2439 14.6825 14.2495C14.8814 14.255 15.07 14.3393 15.2067 14.4839C15.3435 14.6285 15.4172 14.8215 15.4117 15.0204C15.4061 15.2194 15.3218 15.4079 15.1772 15.5447C13.5098 17.126 11.298 18.0052 9.00001 18H8.87626C7.40226 17.9798 5.95579 17.5979 4.66398 16.8878C3.37216 16.1776 2.27455 15.161 1.46762 13.9274C0.660696 12.6937 0.169152 11.2807 0.0361952 9.81259C-0.0967615 8.34447 0.13294 6.86616 0.70511 5.5076C1.27728 4.14903 2.1744 2.95181 3.31762 2.02116C4.46085 1.09051 5.81517 0.45492 7.26156 0.170255C8.70794 -0.11441 10.2021 -0.0394343 11.6127 0.388592C13.0234 0.816619 14.3073 1.58459 15.3516 2.62501L18 5.04376V2.25001C18 2.0511 18.079 1.86033 18.2197 1.71968C18.3603 1.57903 18.5511 1.50001 18.75 1.50001C18.9489 1.50001 19.1397 1.57903 19.2803 1.71968C19.421 1.86033 19.5 2.0511 19.5 2.25001Z" fill="#C7C7C7"/>
</svg>
