<svg width="20" height="20" viewBox="0 0 20 20" fill="none" xmlns="http://www.w3.org/2000/svg">
<path fill-rule="evenodd" clip-rule="evenodd" d="M10 0.25C12.585 0.252759 15.0637 1.28054 16.8916 3.1084C18.7195 4.93628 19.7473 7.415 19.75 10C19.75 11.9284 19.1778 13.8136 18.1065 15.417C17.0352 17.0201 15.5128 18.2699 13.7315 19.0078C11.9499 19.7458 9.98898 19.9387 8.09766 19.5625C6.20642 19.1863 4.469 18.258 3.10548 16.8945C1.74198 15.531 0.813746 13.7936 0.437507 11.9023C0.0613012 10.011 0.25424 8.05013 0.992195 6.26855C1.73013 4.48718 2.97983 2.96483 4.58301 1.89355C6.18639 0.822211 8.07164 0.25 10 0.25ZM3.68555 4.69141C2.79364 5.75228 2.18009 7.02377 1.90821 8.39062C1.58992 9.99092 1.75353 11.6498 2.37794 13.1572C3.0023 14.6645 4.05954 15.9529 5.41602 16.8594C6.77273 17.7659 8.36831 18.25 10 18.25C11.9481 18.2478 13.8229 17.5553 15.3027 16.3115C15.2372 16.2768 15.1745 16.2351 15.1211 16.1816L3.81837 4.87891C3.76332 4.82386 3.72068 4.75929 3.68555 4.69141ZM13.1572 2.37793C11.6498 1.75354 9.99089 1.58995 8.39063 1.9082C7.02383 2.18008 5.75227 2.79369 4.69141 3.68555C4.75932 3.72067 4.82385 3.7633 4.87891 3.81836L16.1826 15.1211C16.236 15.1745 16.2769 15.2372 16.3115 15.3027C17.5553 13.8229 18.2478 11.9481 18.25 10C18.25 8.3684 17.7658 6.77364 16.8594 5.41699C15.9529 4.06033 14.6647 3.00236 13.1572 2.37793Z" fill="#C7C7C7"/>
</svg>
