<svg width="14" height="9" viewBox="0 0 14 9" fill="none" xmlns="http://www.w3.org/2000/svg">
<path d="M6.5578 8.19229L0.3078 1.94229C0.249731 1.88422 0.203669 1.81528 0.172242 1.73941C0.140816 1.66354 0.124639 1.58222 0.124639 1.5001C0.124639 1.41798 0.140816 1.33666 0.172242 1.26079C0.203669 1.18492 0.249731 1.11598 0.3078 1.05791C0.365869 0.999846 0.434807 0.953783 0.510677 0.922357C0.586548 0.89093 0.667866 0.874755 0.749988 0.874755C0.832109 0.874755 0.913427 0.89093 0.989298 0.922357C1.06517 0.953783 1.13411 0.999846 1.19217 1.05792L6.99999 6.86651L12.8078 1.05792C12.9251 0.94064 13.0841 0.874756 13.25 0.874756C13.4158 0.874756 13.5749 0.94064 13.6922 1.05792C13.8095 1.17519 13.8753 1.33425 13.8753 1.5001C13.8753 1.66596 13.8095 1.82502 13.6922 1.94229L7.44218 8.19229C7.38413 8.2504 7.3152 8.2965 7.23933 8.32795C7.16345 8.35941 7.08212 8.37559 6.99999 8.37559C6.91785 8.37559 6.83652 8.35941 6.76065 8.32795C6.68478 8.2965 6.61585 8.2504 6.5578 8.19229Z" fill="#757575"/>
</svg>
