<svg width="18" height="18" viewBox="0 0 18 18" fill="none" xmlns="http://www.w3.org/2000/svg">
<path d="M9 0.875C7.39303 0.875 5.82214 1.35152 4.486 2.24431C3.14985 3.1371 2.10844 4.40605 1.49348 5.8907C0.87852 7.37535 0.717618 9.00901 1.03112 10.5851C1.34463 12.1612 2.11846 13.6089 3.25476 14.7452C4.39106 15.8815 5.8388 16.6554 7.4149 16.9689C8.99099 17.2824 10.6247 17.1215 12.1093 16.5065C13.594 15.8916 14.8629 14.8502 15.7557 13.514C16.6485 12.1779 17.125 10.607 17.125 9C17.1227 6.84581 16.266 4.78051 14.7427 3.25727C13.2195 1.73403 11.1542 0.877275 9 0.875ZM8.375 5.25C8.375 5.08424 8.44085 4.92527 8.55806 4.80806C8.67527 4.69085 8.83424 4.625 9 4.625C9.16576 4.625 9.32474 4.69085 9.44195 4.80806C9.55916 4.92527 9.625 5.08424 9.625 5.25V9.625C9.625 9.79076 9.55916 9.94973 9.44195 10.0669C9.32474 10.1842 9.16576 10.25 9 10.25C8.83424 10.25 8.67527 10.1842 8.55806 10.0669C8.44085 9.94973 8.375 9.79076 8.375 9.625V5.25ZM9 13.375C8.81458 13.375 8.63333 13.32 8.47916 13.217C8.32499 13.114 8.20482 12.9676 8.13387 12.7963C8.06291 12.625 8.04434 12.4365 8.08052 12.2546C8.11669 12.0727 8.20598 11.9057 8.33709 11.7746C8.4682 11.6435 8.63525 11.5542 8.81711 11.518C8.99896 11.4818 9.18746 11.5004 9.35877 11.5714C9.53007 11.6423 9.67649 11.7625 9.77951 11.9167C9.88252 12.0708 9.9375 12.2521 9.9375 12.4375C9.9375 12.6861 9.83873 12.9246 9.66292 13.1004C9.4871 13.2762 9.24864 13.375 9 13.375Z" fill="#E54F40"/>
</svg>
